<?xml version="1.0"?>
<svg version="1.1" xmlns="http://www.w3.org/2000/svg" width="300" height="64" style=""><path fill="#" d="M18.234375,53.5859375l0-25.69921875l5.44921875,0l0,25.69921875l-5.44921875,0z M50.34556640625,53.5859375l-5.361328125,0l0-11.478515625q0-2.126953125-0.755859375-3.1904296875t-2.408203125-1.0634765625q-2.25,0-3.251953125,1.5029296875t-1.001953125,4.9833984375l0,9.24609375l-5.361328125,0l0-19.65234375l4.095703125,0l0.720703125,2.513671875l0.298828125,0q0.896484375-1.423828125,2.4697265625-2.1533203125t3.5771484375-0.7294921875q3.427734375,0,5.203125,1.8544921875t1.775390625,5.3525390625l0,12.814453125z M72.0505078125,47.75q0,3.0234375-2.1005859375,4.60546875t-6.2841796875,1.58203125q-2.14453125,0-3.65625-0.2900390625t-2.830078125-0.8525390625l0-4.4296875q1.494140625,0.703125,3.3662109375,1.177734375t3.2958984375,0.474609375q2.91796875,0,2.91796875-1.6875q0-0.6328125-0.38671875-1.0283203125t-1.3359375-0.896484375t-2.53125-1.1689453125q-2.267578125-0.94921875-3.3310546875-1.7578125t-1.546875-1.8544921875t-0.4833984375-2.5751953125q0-2.619140625,2.0302734375-4.0517578125t5.7568359375-1.4326171875q3.55078125,0,6.908203125,1.546875l-1.6171875,3.8671875q-1.4765625-0.6328125-2.759765625-1.037109375t-2.619140625-0.404296875q-2.373046875,0-2.373046875,1.283203125q0,0.720703125,0.7646484375,1.248046875t3.3486328125,1.564453125q2.302734375,0.931640625,3.375,1.740234375t1.58203125,1.86328125t0.509765625,2.513671875z M86.98787109375,49.666015625q1.40625,0,3.375-0.615234375l0,3.990234375q-2.00390625,0.896484375-4.921875,0.896484375q-3.216796875,0-4.6845703125-1.6259765625t-1.4677734375-4.8779296875l0-9.474609375l-2.56640625,0l0-2.267578125l2.953125-1.79296875l1.546875-4.1484375l3.427734375,0l0,4.18359375l5.501953125,0l0,4.025390625l-5.501953125,0l0,9.474609375q0,1.142578125,0.6416015625,1.6875t1.6962890625,0.544921875z M109.29046875,53.5859375l-1.037109375-2.671875l-0.140625,0q-1.353515625,1.705078125-2.7861328125,2.3642578125t-3.7353515625,0.6591796875q-2.830078125,0-4.4560546875-1.6171875t-1.6259765625-4.60546875q0-3.12890625,2.1884765625-4.6142578125t6.6005859375-1.6435546875l3.41015625-0.10546875l0-0.861328125q0-2.98828125-3.05859375-2.98828125q-2.35546875,0-5.537109375,1.423828125l-1.775390625-3.62109375q3.392578125-1.775390625,7.5234375-1.775390625q3.955078125,0,6.064453125,1.72265625t2.109375,5.23828125l0,13.095703125l-3.744140625,0z M107.7084375,44.48046875l-2.07421875,0.0703125q-2.337890625,0.0703125-3.48046875,0.84375t-1.142578125,2.35546875q0,2.267578125,2.6015625,2.267578125q1.86328125,0,2.9794921875-1.072265625t1.1162109375-2.84765625l0-1.6171875z M154.5987890625,40.490234375q0,6.345703125-3.6123046875,9.720703125t-10.4326171875,3.375l-7.27734375,0l0-25.69921875l8.068359375,0q6.29296875,0,9.7734375,3.322265625t3.48046875,9.28125z M148.9386328125,40.630859375q0-8.279296875-7.3125-8.279296875l-2.900390625,0l0,16.734375l2.337890625,0q7.875,0,7.875-8.455078125z M161.74904296875,28.853515625q0-2.619140625,2.91796875-2.619140625t2.91796875,2.619140625q0,1.248046875-0.7294921875,1.9423828125t-2.1884765625,0.6943359375q-2.91796875,0-2.91796875-2.63671875z M167.33888671875,53.5859375l-5.361328125,0l0-19.65234375l5.361328125,0l0,19.65234375z M189.149296875,47.75q0,3.0234375-2.1005859375,4.60546875t-6.2841796875,1.58203125q-2.14453125,0-3.65625-0.2900390625t-2.830078125-0.8525390625l0-4.4296875q1.494140625,0.703125,3.3662109375,1.177734375t3.2958984375,0.474609375q2.91796875,0,2.91796875-1.6875q0-0.6328125-0.38671875-1.0283203125t-1.3359375-0.896484375t-2.53125-1.1689453125q-2.267578125-0.94921875-3.3310546875-1.7578125t-1.546875-1.8544921875t-0.4833984375-2.5751953125q0-2.619140625,2.0302734375-4.0517578125t5.7568359375-1.4326171875q3.55078125,0,6.908203125,1.546875l-1.6171875,3.8671875q-1.4765625-0.6328125-2.759765625-1.037109375t-2.619140625-0.404296875q-2.373046875,0-2.373046875,1.283203125q0,0.720703125,0.7646484375,1.248046875t3.3486328125,1.564453125q2.302734375,0.931640625,3.375,1.740234375t1.58203125,1.86328125t0.509765625,2.513671875z M213.94798828125,53.5859375l-5.361328125,0l0-11.478515625q0-4.25390625-3.1640625-4.25390625q-2.25,0-3.251953125,1.529296875t-1.001953125,4.95703125l0,9.24609375l-5.361328125,0l0-27.3515625l5.361328125,0l0,5.572265625q0,0.650390625-0.123046875,3.05859375l-0.123046875,1.58203125l0.28125,0q1.79296875-2.8828125,5.6953125-2.8828125q3.462890625,0,5.255859375,1.86328125t1.79296875,5.34375l0,12.814453125z"/><path fill="#" d=""/></svg>
