<?xml version="1.0"?>
<svg version="1.1" xmlns="http://www.w3.org/2000/svg" width="256" height="64" style=""><path fill="#" d="M36.46875,28.34375l0,14.78125q0,2.53125-1.1328125,4.4375t-3.2734375,2.921875t-5.0625,1.015625q-4.40625,0-6.84375-2.2578125t-2.4375-6.1796875l0-14.71875l4.828125,0l0,13.984375q0,2.640625,1.0625,3.875t3.515625,1.234375q2.375,0,3.4453125-1.2421875t1.0703125-3.8984375l0-13.953125l4.828125,0z M59.52765625,51.1875l-4.765625,0l0-10.203125q0-1.890625-0.6328125-2.8359375t-1.9921875-0.9453125q-1.828125,0-2.65625,1.34375t-0.828125,4.421875l0,8.21875l-4.765625,0l0-17.46875l3.640625,0l0.640625,2.234375l0.265625,0q0.703125-1.203125,2.03125-1.8828125t3.046875-0.6796875q3.921875,0,5.3125,2.5625l0.421875,0q0.703125-1.21875,2.0703125-1.890625t3.0859375-0.671875q2.96875,0,4.4921875,1.5234375t1.5234375,4.8828125l0,11.390625l-4.78125,0l0-10.203125q0-1.890625-0.6328125-2.8359375t-1.9921875-0.9453125q-1.75,0-2.6171875,1.25t-0.8671875,3.96875l0,8.765625z M88.6021875,51.1875l-0.921875-2.375l-0.125,0q-1.203125,1.515625-2.4765625,2.1015625t-3.3203125,0.5859375q-2.515625,0-3.9609375-1.4375t-1.4453125-4.09375q0-2.78125,1.9453125-4.1015625t5.8671875-1.4609375l3.03125-0.09375l0-0.765625q0-2.65625-2.71875-2.65625q-2.09375,0-4.921875,1.265625l-1.578125-3.21875q3.015625-1.578125,6.6875-1.578125q3.515625,0,5.390625,1.53125t1.875,4.65625l0,11.640625l-3.328125,0z M87.1959375,43.09375l-1.84375,0.0625q-2.078125,0.0625-3.09375,0.75t-1.015625,2.09375q0,2.015625,2.3125,2.015625q1.65625,0,2.6484375-0.953125t0.9921875-2.53125l0-1.4375z M123.079375,51.1875l-13.15625,0l0-22.84375l13.15625,0l0,3.96875l-8.3125,0l0,5.015625l7.734375,0l0,3.96875l-7.734375,0l0,5.890625l8.3125,0l0,4z M140.76328125,51.1875l-0.921875-2.375l-0.125,0q-1.203125,1.515625-2.4765625,2.1015625t-3.3203125,0.5859375q-2.515625,0-3.9609375-1.4375t-1.4453125-4.09375q0-2.78125,1.9453125-4.1015625t5.8671875-1.4609375l3.03125-0.09375l0-0.765625q0-2.65625-2.71875-2.65625q-2.09375,0-4.921875,1.265625l-1.578125-3.21875q3.015625-1.578125,6.6875-1.578125q3.515625,0,5.390625,1.53125t1.875,4.65625l0,11.640625l-3.328125,0z M139.35703125,43.09375l-1.84375,0.0625q-2.078125,0.0625-3.09375,0.75t-1.015625,2.09375q0,2.015625,2.3125,2.015625q1.65625,0,2.6484375-0.953125t0.9921875-2.53125l0-1.4375z M158.5565625,47.703125q1.25,0,3-0.546875l0,3.546875q-1.78125,0.796875-4.375,0.796875q-2.859375,0-4.1640625-1.4453125t-1.3046875-4.3359375l0-8.421875l-2.28125,0l0-2.015625l2.625-1.59375l1.375-3.6875l3.046875,0l0,3.71875l4.890625,0l0,3.578125l-4.890625,0l0,8.421875q0,1.015625,0.5703125,1.5t1.5078125,0.484375z M179.47484375,46q0,2.6875-1.8671875,4.09375t-5.5859375,1.40625q-1.90625,0-3.25-0.2578125t-2.515625-0.7578125l0-3.9375q1.328125,0.625,2.9921875,1.046875t2.9296875,0.421875q2.59375,0,2.59375-1.5q0-0.5625-0.34375-0.9140625t-1.1875-0.796875t-2.25-1.0390625q-2.015625-0.84375-2.9609375-1.5625t-1.375-1.6484375t-0.4296875-2.2890625q0-2.328125,1.8046875-3.6015625t5.1171875-1.2734375q3.15625,0,6.140625,1.375l-1.4375,3.4375q-1.3125-0.5625-2.453125-0.921875t-2.328125-0.359375q-2.109375,0-2.109375,1.140625q0,0.640625,0.6796875,1.109375t2.9765625,1.390625q2.046875,0.828125,3,1.546875t1.40625,1.65625t0.453125,2.234375z"/><path fill="#" d=""/></svg>
